<?xml version="1.0" encoding="UTF-8"?>
<svg xmlns="http://www.w3.org/2000/svg" version="1.1" viewBox="0 0 64 64" width="64" height="64">
  <title>Sicherheit</title>
  <defs>
    <linearGradient id="kg-sicherheit-verlauf" x1="12" y1="4" x2="52" y2="60" gradientUnits="userSpaceOnUse">
      <stop offset="0" stop-color="#2A9BF2"/>
      <stop offset="0.5" stop-color="#0E6CA6"/>
      <stop offset="1" stop-color="#004562"/>
    </linearGradient>
    <radialGradient id="kg-sicherheit-glanz" cx="20" cy="14" r="30" gradientUnits="userSpaceOnUse">
      <stop offset="0" stop-color="#FFFFFF" stop-opacity="0.32"/>
      <stop offset="1" stop-color="#FFFFFF" stop-opacity="0"/>
    </radialGradient>
  </defs>
  <g id="Hintergrund">
    <circle cx="32" cy="32" r="32" fill="url(#kg-sicherheit-verlauf)"/>
    <circle cx="32" cy="32" r="32" fill="url(#kg-sicherheit-glanz)"/>
    <circle cx="32" cy="32" r="30.75" fill="none" stroke="#FFFFFF" stroke-width="1" opacity="0.22"/>
  </g>
  <g id="Flaeche">
    <path d="M32 17 45 22v9c0 8.5-5.5 14-13 16.5C24.5 45 19 39.5 19 31v-9Z" fill="#FFFFFF" opacity="0.16"/>
  </g>
  <g id="Kontur">
    <path d="M32 17 45 22v9c0 8.5-5.5 14-13 16.5C24.5 45 19 39.5 19 31v-9Z" fill="none" stroke="#FFFFFF" stroke-width="3" stroke-linecap="round" stroke-linejoin="round"/>
  </g>
  <g id="Akzent">
    <path d="m26.5 32 4 4 7.5-8" fill="none" stroke="#7DD3FC" stroke-width="3" stroke-linecap="round" stroke-linejoin="round"/>
  </g>
</svg>
