<?xml version="1.0" encoding="UTF-8"?>
<svg xmlns="http://www.w3.org/2000/svg" version="1.1" viewBox="0 0 64 64" width="64" height="64">
  <title>Wirtschaftlichkeit</title>
  <defs>
    <linearGradient id="kg-wirtschaftlichkeit-verlauf" x1="12" y1="4" x2="52" y2="60" gradientUnits="userSpaceOnUse">
      <stop offset="0" stop-color="#2A9BF2"/>
      <stop offset="0.5" stop-color="#0E6CA6"/>
      <stop offset="1" stop-color="#004562"/>
    </linearGradient>
    <radialGradient id="kg-wirtschaftlichkeit-glanz" cx="20" cy="14" r="30" gradientUnits="userSpaceOnUse">
      <stop offset="0" stop-color="#FFFFFF" stop-opacity="0.32"/>
      <stop offset="1" stop-color="#FFFFFF" stop-opacity="0"/>
    </radialGradient>
  </defs>
  <g id="Hintergrund">
    <circle cx="32" cy="32" r="32" fill="url(#kg-wirtschaftlichkeit-verlauf)"/>
    <circle cx="32" cy="32" r="32" fill="url(#kg-wirtschaftlichkeit-glanz)"/>
    <circle cx="32" cy="32" r="30.75" fill="none" stroke="#FFFFFF" stroke-width="1" opacity="0.22"/>
  </g>
  <g id="Flaeche">
    <rect x="19" y="37" width="6" height="8" rx="1.5" fill="#FFFFFF" opacity="0.16"/>
    <rect x="29" y="32" width="6" height="13" rx="1.5" fill="#FFFFFF" opacity="0.16"/>
    <rect x="39" y="27" width="6" height="18" rx="1.5" fill="#FFFFFF" opacity="0.16"/>
  </g>
  <g id="Kontur">
    <rect x="19" y="37" width="6" height="8" rx="1.5" fill="none" stroke="#FFFFFF" stroke-width="3" stroke-linecap="round" stroke-linejoin="round"/>
    <rect x="29" y="32" width="6" height="13" rx="1.5" fill="none" stroke="#FFFFFF" stroke-width="3" stroke-linecap="round" stroke-linejoin="round"/>
    <rect x="39" y="27" width="6" height="18" rx="1.5" fill="none" stroke="#FFFFFF" stroke-width="3" stroke-linecap="round" stroke-linejoin="round"/>
  </g>
  <g id="Akzent">
    <path d="m18 29.5 7-6 6 3 12-9.5M37.5 17H43v5.5" fill="none" stroke="#7DD3FC" stroke-width="3" stroke-linecap="round" stroke-linejoin="round"/>
  </g>
</svg>
